<?xml version="1.0" encoding="utf-8"?>
<!-- Generator: Adobe Illustrator 22.1.0, SVG Export Plug-In . SVG Version: 6.00 Build 0)  -->
<svg version="1.1" id="Capa_1" xmlns="http://www.w3.org/2000/svg" xmlns:xlink="http://www.w3.org/1999/xlink" x="0px" y="0px"
	 viewBox="0 0 70 70" style="enable-background:new 0 0 70 70;" xml:space="preserve">
<style type="text/css">
	.st0{fill:#EA5045;}
</style>
<g>
	<g>
		<g>
			<path class="st0" d="M46.6,38.5c-3.8,0-6.9,3.1-6.9,6.9s3.1,6.9,6.9,6.9s6.9-3.1,6.9-6.9S50.4,38.5,46.6,38.5z M46.6,49.9
				c-2.4,0-4.5-2.1-4.5-4.5c0-2.4,2.1-4.5,4.5-4.5c2.4,0,4.5,2.1,4.5,4.5C51.1,47.8,49,49.9,46.6,49.9z"/>
		</g>
	</g>
	<g>
		<g>
			<path class="st0" d="M48.7,49.9v4.9l-1.7-1c-0.3-0.3-1-0.3-1.4,0l-1.7,1v-4.9h-2.4v6.9c0,0.3,0.3,0.7,0.7,1c0.3,0.3,0.7,0.3,1,0
				l2.8-1.7l2.8,1.7c0.3,0,0.3,0.3,0.7,0.3c0.3,0,0.3,0,0.7,0c0.3-0.3,0.7-0.7,0.7-1v-6.9h-2.1V49.9z"/>
		</g>
	</g>
	<g>
		<g>
			<rect x="26.8" y="11.7" class="st0" width="14.9" height="2.4"/>
		</g>
	</g>
	<g>
		<g>
			<rect x="16.4" y="18.7" class="st0" width="37.2" height="2.4"/>
		</g>
	</g>
	<g>
		<g>
			<rect x="16.4" y="25.6" class="st0" width="25.4" height="2.4"/>
		</g>
	</g>
	<g>
		<g>
			<rect x="46.6" y="25.6" class="st0" width="6.9" height="2.4"/>
		</g>
	</g>
	<g>
		<g>
			<rect x="16.4" y="32.6" class="st0" width="37.2" height="2.4"/>
		</g>
	</g>
	<g>
		<g>
			<rect x="16.4" y="39.5" class="st0" width="13.9" height="2.4"/>
		</g>
	</g>
	<g>
		<g>
			<rect x="16.4" y="45.4" class="st0" width="5.9" height="2.4"/>
		</g>
	</g>
	<g>
		<g>
			<rect x="26.8" y="45.4" class="st0" width="3.5" height="2.4"/>
		</g>
	</g>
	<g>
		<g>
			<path class="st0" d="M63.9,0.3c-3.1,0-5.9,2.4-5.9,5.9v2.4c0,0.7,0.3,1,1,1h9.4c0.7,0,1-0.3,1-1V6.2C69.5,2.7,67.1,0.3,63.9,0.3z
				 M67.4,7.2h-6.9v-1c0-2.1,1.4-3.5,3.5-3.5c2.1,0,3.5,1.4,3.5,3.5V7.2z"/>
		</g>
	</g>
	<g>
		<g>
			<path class="st0" d="M63.9,0.3H15.3c-3.1,0-5.9,2.4-5.9,5.9v55.6h2.4V6.2c0-2.1,1.4-3.5,3.5-3.5h44.1c-0.7,1-1,2.1-1,3.5v58
				c0,2.1-1.4,3.5-3.5,3.5H10.4v2.1h44.1c3.1,0,5.9-2.4,5.9-5.9V6.2c0-2.1,1.4-3.5,3.5-3.5c0.7,0,1-0.3,1-1S64.6,0.3,63.9,0.3z"/>
		</g>
	</g>
	<g>
		<g>
			<path class="st0" d="M54.6,67.3c-2.1,0-3.5-1.4-3.5-3.5v-2.4c0-0.7-0.3-1-1-1H1.4c-0.7,0-1,0.3-1,1v2.4c0,3.1,2.4,5.9,5.9,5.9
				h48.6c0.7,0,1-0.3,1-1C55.6,68,55.3,67.3,54.6,67.3z M5.9,67.3c-2.1,0-3.5-1.4-3.5-3.5v-1h46.2v1c0,1.4,0.3,2.4,1,3.5H5.9
				L5.9,67.3z"/>
		</g>
	</g>
</g>
</svg>
