<?xml version="1.0" encoding="utf-8"?>
<!-- Generator: Adobe Illustrator 22.1.0, SVG Export Plug-In . SVG Version: 6.00 Build 0)  -->
<svg version="1.1" id="Layer_1" xmlns="http://www.w3.org/2000/svg" xmlns:xlink="http://www.w3.org/1999/xlink" x="0px" y="0px"
	 viewBox="0 0 70 70" style="enable-background:new 0 0 70 70;" xml:space="preserve">
<style type="text/css">
	.st0{fill:#EA5045;}
</style>
<g>
	<g>
		<g>
			<path class="st0" d="M39.2,33.2c0.3,0.3,0.7,0.7,1,0.7c0.3,0,0.3,0,0.7,0c0,0,7.1-3.4,10.5-4.7c0.7-0.3,1-1,0.7-1.4
				c-0.3-0.7-1-1-1.4-0.7c-3.7,1-10.5,4.7-10.8,4.7C39.2,31.8,38.9,32.5,39.2,33.2z"/>
			<path class="st0" d="M40.3,19.6c0.3,0,0.3,0,0.7,0c0,0,7.1-3.4,10.5-4.7c0.7-0.3,1-1,0.7-1.4c-0.3-0.7-1-1-1.4-0.7
				c-3.7,1-10.5,4.7-10.8,4.7c-0.7,0.3-0.7,1-0.7,1.7C39.2,19.3,39.9,19.6,40.3,19.6z"/>
			<path class="st0" d="M68.3,17.3c-0.7,0-1,0.7-1,1v45.6c0,2-1.7,3.4-3.4,3.4H35.9v-2.7c1.7-0.7,6.1-2,10.5-2
				c10.1,0,17.2,2.4,17.2,2.4c0.3,0,0.7,0,1,0c0.3-0.3,0.3-0.7,0.3-1V12.5c0-0.7-0.3-1-1-1c0,0-1-0.3-2.4-0.3c-0.7,0-1.4,0.3-1.4,1
				s0.3,1.4,1,1.4c0.7,0,1,0.3,1.4,0.3v49c-2.7-0.7-8.4-2-16.2-2c-5.1,0-10.1,1.7-11.5,2.4c-1.4-0.7-5.4-2.4-10.5-2.4
				c-8.1,0-14.5,1.4-17.6,2V13.6c2.4-0.7,9.1-2,17.6-2c4.4,0,7.8,1.4,9.5,2v46c0,0.3,0.3,0.7,0.7,1c0.3,0.3,0.7,0.3,1,0
				c0,0,11.8-7.1,22-10.5c0.3,0,0.7-0.7,0.7-1v-48c0-0.3-0.3-0.7-0.3-1c-0.3-0.3-0.7-0.3-1,0c-9.5,3.4-18.9,9.5-18.9,9.5
				c-0.7,0.3-0.7,1-0.3,1.7c0.3,0.7,1,0.7,1.7,0.3c0,0,8.4-5.1,16.9-8.8V48c-8.1,2.7-16.2,7.4-19.9,9.5V12.5c0-0.3-0.3-1-0.7-1
				c-0.3,0-5.1-2.4-11.2-2.4c-10.5,0-18.6,2.4-18.9,2.4c-0.3,0-1,0.7-1,1v51.4c0,0.3,0.3,0.7,0.3,1c0.3,0,0.3,0.3,0.7,0.3h0.3
				c0,0,8.1-2.4,18.2-2.4c4.4,0,7.8,1.4,9.5,2v2.7H5.4c-2,0-3.4-1.7-3.4-3.4V18.6c0-0.7-0.7-1-1-1c-0.7,0-1,0.7-1,1v45.6
				C0,67.6,2.7,70,5.8,70h58.5c3.4,0,5.7-2.7,5.7-5.7V18.6C69.3,18,69,17.3,68.3,17.3z"/>
			<path class="st0" d="M39.2,26.1c0.3,0.3,0.7,0.7,1,0.7c0.3,0,0.3,0,0.7,0c0,0,7.1-3.4,10.5-4.7c0.7-0.3,1-1,0.7-1.4
				c-0.3-0.7-1-1-1.4-0.7c-3.7,1-10.5,4.7-10.8,4.7C39.2,24.7,38.9,25.4,39.2,26.1z"/>
			<path class="st0" d="M39.2,40.3c0.3,0.3,0.7,0.7,1,0.7c0.3,0,0.3,0,0.7,0c0,0,7.1-3.4,10.5-4.7c0.7-0.3,1-1,0.7-1.4
				c-0.3-0.7-1-1-1.4-0.7c-3.7,1-10.5,4.7-10.8,4.7C39.2,38.9,38.9,39.6,39.2,40.3z"/>
			<path class="st0" d="M27.8,21.7C20.7,20,12.2,22,11.9,22.3c-0.7,0-1,0.7-0.7,1.4c0,0.7,0.7,1,1,1h0.3c0,0,8.1-2,14.5-0.7
				c0.7,0,1.4-0.3,1.4-1C28.8,22.3,28.1,21.7,27.8,21.7z"/>
			<path class="st0" d="M27.8,28.4c-7.1-1.7-15.5,0.3-15.9,0.7c-0.7,0-1,0.7-0.7,1.4c0,0.7,0.7,1,1,1h0.3c0,0,8.1-2,14.5-0.7
				c0.7,0,1.4-0.3,1.4-1C28.8,29.4,28.1,28.8,27.8,28.4z"/>
			<path class="st0" d="M39.2,47c0.3,0.3,0.7,0.7,1,0.7c0.3,0,0.3,0,0.7,0c0,0,7.1-3.4,10.5-4.7c0.7-0.3,1-1,0.7-1.4
				c-0.3-0.7-1-1-1.4-0.7c-3.7,1-10.5,4.7-10.8,4.7C39.2,45.7,38.9,46.7,39.2,47z"/>
			<path class="st0" d="M27.8,35.5c-7.1-1.7-15.5,0.3-15.9,0.7c-0.7,0-1,0.7-0.7,1.4c0,0.7,0.7,1,1,1h0.3c0,0,8.1-2,14.5-0.7
				c0.7,0,1.4-0.3,1.4-1C28.8,36.2,28.1,35.5,27.8,35.5z"/>
			<path class="st0" d="M27.8,49.7c-7.1-1.7-15.5,0.3-15.9,0.7c-0.7,0-1,0.7-0.7,1.4c0,0.7,0.7,1,1,1h0.3c0,0,8.1-2,14.5-0.7
				c0.7,0,1.4-0.3,1.4-1C28.8,50.4,28.1,49.7,27.8,49.7z"/>
			<path class="st0" d="M27.8,42.6c-7.1-1.7-15.5,0.3-15.9,0.7c-0.7,0-1,0.7-0.7,1.4c0,0.7,0.7,1,1,1h0.3c0,0,8.1-2,14.5-0.7
				c0.7,0,1.4-0.3,1.4-1C28.8,43.3,28.1,42.6,27.8,42.6z"/>
		</g>
	</g>
</g>
</svg>
