<?xml version="1.0" encoding="utf-8"?>
<!-- Generator: Adobe Illustrator 22.1.0, SVG Export Plug-In . SVG Version: 6.00 Build 0)  -->
<svg version="1.1" id="Capa_1" xmlns="http://www.w3.org/2000/svg" xmlns:xlink="http://www.w3.org/1999/xlink" x="0px" y="0px"
	 viewBox="0 0 70 70" style="enable-background:new 0 0 70 70;" xml:space="preserve">
<style type="text/css">
	.st0{fill:#EA5045;}
</style>
<g>
	<g>
		<g>
			<path class="st0" d="M69.1,25.6h-4.9c-0.4-1.4-1.1-3.2-1.8-4.6l3.5-3.5c0.4-0.4,0.4-0.4,0.4-0.7c0-0.4,0-0.7-0.4-0.7L54.3,4.4
				c-0.4-0.4-1.4-0.4-1.8,0L49,7.9c-1.4-0.7-2.8-1.4-4.6-1.8V1.2c0-0.7-0.7-1.1-1.1-1.1H26.7c-0.7,0-1.1,0.7-1.1,1.1v4.9
				c-1.4,0.4-3.2,1.1-4.6,1.8l-3.5-3.5C17.2,4,17.2,4,16.8,4c-0.4,0-0.7,0-0.7,0.4L4.5,16c-0.4,0.4-0.4,0.4-0.4,0.7
				c0,0.4,0,0.7,0.4,0.7L8,21c-0.7,1.4-1.4,2.8-1.8,4.6H1.3c-0.7,0-1.1,0.7-1.1,1.1v16.6c0,0.7,0.7,1.1,1.1,1.1h4.9
				c0.4,1.4,1.1,3.2,1.8,4.6l-3.5,3.5c-0.4,0.4-0.4,0.4-0.4,0.7c0,0.4,0,0.7,0.4,0.7l11.7,11.7c0.4,0.4,1.4,0.4,1.8,0l3.5-3.5
				c1.4,0.7,2.8,1.4,4.6,1.8v4.9c0,0.7,0.7,1.1,1.1,1.1h16.6c0.7,0,1.1-0.7,1.1-1.1v-4.9c1.4-0.4,3.2-1.1,4.6-1.8l3.5,3.5
				c0.4,0.4,0.4,0.4,0.7,0.4s0.7,0,0.7-0.4l11.7-11.7c0.4-0.4,0.4-0.4,0.4-0.7c0-0.4,0-0.7-0.4-0.7l-3.5-3.5
				c0.7-1.4,1.4-2.8,1.8-4.6h4.9c0.7,0,1.1-0.7,1.1-1.1V26.6C70.2,26.3,69.8,25.6,69.1,25.6z M68.1,42.2h-4.9
				c-0.4,0-1.1,0.4-1.1,0.7c-0.7,2.1-1.4,3.9-2.5,5.7c-0.4,0.4,0,1.1,0.4,1.4l3.5,3.5L53.2,63.7l-3.5-3.5c-0.4-0.4-1.1-0.4-1.4-0.4
				c-1.8,1.1-3.9,1.8-5.7,2.5c-0.4,0-0.7,0.7-0.7,1.1v4.9H27.8v-4.9c0-0.4-0.4-1.1-0.7-1.1c-2.1-0.7-3.9-1.4-5.7-2.5
				c-0.4-0.4-1.1,0-1.4,0.4l-3.5,3.5L6.2,53.5L9.8,50c0.4-0.4,0.4-1.1,0.4-1.4c-1.1-1.8-1.8-3.9-2.5-5.7c0-0.4-0.7-0.7-1.1-0.7H2
				V28.1h4.6c0.4,0,1.1-0.4,1.1-0.7c0.7-2.1,1.4-3.9,2.5-5.7c0.4-0.4,0-1.1-0.4-1.4l-3.5-3.5L16.5,6.5L20,10
				c0.4,0.4,1.1,0.4,1.4,0.4c1.8-1.1,3.9-1.8,5.7-2.5c0.4,0,0.7-0.7,0.7-1.1V2.3h14.1v4.6c0,0.4,0.4,1.1,0.7,1.1
				c2.1,0.7,3.9,1.4,5.7,2.5c0.4,0.4,1.1,0,1.4-0.4l3.5-3.5l10.2,10.2l-3.5,3.5c-0.4,0.4-0.4,1.1-0.4,1.4c1.1,1.8,1.8,3.9,2.5,5.7
				c0,0.4,0.7,0.7,1.1,0.7h4.9V42.2z"/>
		</g>
	</g>
	<g>
		<g>
			<path class="st0" d="M34.5,15c-11.3,0-20.1,9.2-20.1,20.1c0,4.6,1.8,8.8,4.2,12.4l0,0l0,0c0.4,0.7,1.1,1.1,1.4,1.8l0,0
				c0.4,0.4,1.1,1.1,1.8,1.4c0,0,0.4,0.4,0.7,0.4c0.4,0.4,0.7,0.7,1.1,0.7c0.4,0.4,0.7,0.4,0.7,0.4c0.4,0.4,0.7,0.4,1.1,0.7
				c0.4,0,0.7,0.4,1.1,0.4c0.4,0,0.7,0.4,1.1,0.4c0.4,0,0.7,0.4,1.1,0.4c0.4,0,0.7,0.4,1.1,0.4c0.4,0,0.7,0,1.1,0.4
				c0.4,0,1.1,0,1.4,0.4c0.4,0,0.4,0,0.7,0c0.7,0,1.4,0,2.1,0c0.7,0,1.4,0,2.1,0c0.4,0,0.4,0,0.7,0c0.4,0,1.1,0,1.4-0.4
				c0.4,0,0.7,0,1.1-0.4c0.4,0,0.7-0.4,1.1-0.4c0.4,0,0.7-0.4,1.1-0.4c0.4,0,0.7-0.4,1.1-0.4c0.4,0,0.7-0.4,1.1-0.4
				c0.4,0,0.7-0.4,1.1-0.7c0.4,0,0.7-0.4,0.7-0.4c0.4-0.4,0.7-0.7,1.1-0.7c0.4,0,0.4-0.4,0.7-0.4c0.7-0.4,1.1-1.1,1.8-1.4l0,0
				c0.4-0.4,1.1-1.1,1.4-1.8l0,0l0,0c2.8-3.5,4.2-7.8,4.2-12.4C54.6,23.8,45.8,15,34.5,15z M46.9,47.8
				C46.9,48.2,46.9,48.2,46.9,47.8c-0.7,0.7-1.1,1.1-1.4,1.1c-0.4,0-0.4,0.4-0.7,0.4C44.4,49.6,44,49.6,44,50
				c-0.4,0-0.4,0.4-0.7,0.4c-0.4,0-0.7,0.4-0.7,0.4c-0.4,0-0.7,0.4-0.7,0.4c-0.4,0-0.7,0.4-0.7,0.4c-0.4,0-0.7,0.4-0.7,0.4
				c-0.4,0-0.7,0.4-1.1,0.4c-0.4,0-0.7,0-0.7,0.4c-0.4,0-0.7,0-1.1,0.4c-0.4,0-0.4,0-0.7,0c-0.7,0-1.4,0-1.8,0c-0.4,0-1.4,0-1.8,0
				c-0.4,0-0.4,0-0.7,0c-0.4,0-0.7,0-1.1-0.4c-0.4,0-0.7,0-0.7-0.4c-0.4,0-0.7,0-1.1-0.4c-0.4,0-0.7-0.4-0.7-0.4
				c-0.4,0-0.7-0.4-0.7-0.4c-0.4,0-0.7-0.4-0.7-0.4c-0.4,0-0.7-0.4-0.7-0.4c-0.4,0-0.4-0.4-0.7-0.4c-0.4-0.4-0.7-0.4-0.7-0.7
				c-1.8,0-2.1,0-2.1,0c-0.4-0.4-0.7-0.7-1.1-0.7l-0.4-0.4c-0.4-0.4-0.7-1.1-1.4-1.4c1.4-4.9,5.3-8.5,10.2-9.9l0,0
				c0.4,0,0.4,0.4,0.7,0.4l0,0c0.7,0.4,1.8,0.4,2.5,0.4c1.1,0,1.8,0,2.5-0.4l0,0c0.4,0,0.4,0,0.7-0.4l0,0c4.9,1.1,8.8,4.9,10.2,9.9
				C47.9,47.1,47.2,47.5,46.9,47.8z M28.5,29.1c0-3.2,2.8-6,6-6s6,2.8,6,6c0,2.5-1.4,4.6-3.5,5.3c0,0,0,0-0.4,0s-0.7,0.4-1.1,0.4
				c0,0,0,0-0.4,0c-0.4,0-0.7,0-1.1,0l0,0c-0.4,0-0.7,0-1.1,0c0,0,0,0-0.4,0c-0.4,0-0.7,0-1.1-0.4c0,0,0,0-0.4,0
				C29.9,33.7,28.5,31.6,28.5,29.1z M50,44.3c-1.8-4.2-5.3-7.4-9.5-9.2c1.4-1.4,2.5-3.5,2.5-6c0-4.6-3.9-8.5-8.5-8.5
				S26,24.5,26,29.1c0,2.1,1.1,4.2,2.5,6c-4.2,1.8-7.8,4.9-9.5,9.2c-1.4-2.8-2.5-5.7-2.5-9.2c0-9.9,8.1-18,18-18s18,8.1,18,18
				C52.5,38.3,51.5,41.5,50,44.3z"/>
		</g>
	</g>
	<g>
		<g>
			<rect x="33.4" y="40.1" class="st0" width="2.5" height="2.5"/>
		</g>
	</g>
	<g>
		<g>
			<rect x="33.4" y="44.7" class="st0" width="2.5" height="2.5"/>
		</g>
	</g>
</g>
</svg>
